<?xml version="1.0" encoding="UTF-8" standalone="no"?>
<!DOCTYPE svg PUBLIC "-//W3C//DTD SVG 1.1//EN"
 "http://www.w3.org/Graphics/SVG/1.1/DTD/svg11.dtd">
<!-- Generated by graphviz version 2.43.0 (0)
 -->
<!-- Title: snakemake_dag Pages: 1 -->
<svg width="278pt" height="476pt"
 viewBox="0.00 0.00 278.00 476.00" xmlns="http://www.w3.org/2000/svg" xmlns:xlink="http://www.w3.org/1999/xlink">
<g id="graph0" class="graph" transform="scale(1 1) rotate(0) translate(4 472)">
<title>snakemake_dag</title>
<polygon fill="white" stroke="transparent" points="-4,4 -4,-472 274,-472 274,4 -4,4"/>
<!-- 0 -->
<g id="node1" class="node">
<title>0</title>
<path fill="none" stroke="#d8cb56" stroke-width="2" d="M159.5,-36C159.5,-36 118.5,-36 118.5,-36 112.5,-36 106.5,-30 106.5,-24 106.5,-24 106.5,-12 106.5,-12 106.5,-6 112.5,0 118.5,0 118.5,0 159.5,0 159.5,0 165.5,0 171.5,-6 171.5,-12 171.5,-12 171.5,-24 171.5,-24 171.5,-30 165.5,-36 159.5,-36"/>
<text text-anchor="middle" x="139" y="-15.5" font-family="sans" font-size="10.00">freebayes</text>
</g>
<!-- 1 -->
<g id="node2" class="node">
<title>1</title>
<path fill="none" stroke="#5692d8" stroke-width="2" d="M170,-108C170,-108 108,-108 108,-108 102,-108 96,-102 96,-96 96,-96 96,-84 96,-84 96,-78 102,-72 108,-72 108,-72 170,-72 170,-72 176,-72 182,-78 182,-84 182,-84 182,-96 182,-96 182,-102 176,-108 170,-108"/>
<text text-anchor="middle" x="139" y="-87.5" font-family="sans" font-size="10.00">samtools_sort</text>
</g>
<!-- 1&#45;&gt;0 -->
<g id="edge1" class="edge">
<title>1&#45;&gt;0</title>
<path fill="none" stroke="grey" stroke-width="2" d="M139,-71.7C139,-63.98 139,-54.71 139,-46.11"/>
<polygon fill="grey" stroke="grey" stroke-width="2" points="142.5,-46.1 139,-36.1 135.5,-46.1 142.5,-46.1"/>
</g>
<!-- 2 -->
<g id="node3" class="node">
<title>2</title>
<path fill="none" stroke="#56c9d8" stroke-width="2" d="M230.5,-180C230.5,-180 135.5,-180 135.5,-180 129.5,-180 123.5,-174 123.5,-168 123.5,-168 123.5,-156 123.5,-156 123.5,-150 129.5,-144 135.5,-144 135.5,-144 230.5,-144 230.5,-144 236.5,-144 242.5,-150 242.5,-156 242.5,-156 242.5,-168 242.5,-168 242.5,-174 236.5,-180 230.5,-180"/>
<text text-anchor="middle" x="183" y="-159.5" font-family="sans" font-size="10.00">parse_flagstat_result</text>
</g>
<!-- 2&#45;&gt;1 -->
<g id="edge2" class="edge">
<title>2&#45;&gt;1</title>
<path fill="none" stroke="grey" stroke-width="2" d="M172.12,-143.7C167.01,-135.56 160.8,-125.69 155.16,-116.7"/>
<polygon fill="grey" stroke="grey" stroke-width="2" points="158.04,-114.71 149.75,-108.1 152.11,-118.43 158.04,-114.71"/>
</g>
<!-- 3 -->
<g id="node4" class="node">
<title>3</title>
<path fill="none" stroke="#56d873" stroke-width="2" d="M219,-252C219,-252 139,-252 139,-252 133,-252 127,-246 127,-240 127,-240 127,-228 127,-228 127,-222 133,-216 139,-216 139,-216 219,-216 219,-216 225,-216 231,-222 231,-228 231,-228 231,-240 231,-240 231,-246 225,-252 219,-252"/>
<text text-anchor="middle" x="179" y="-231.5" font-family="sans" font-size="10.00">samtools_flagstat</text>
</g>
<!-- 3&#45;&gt;2 -->
<g id="edge4" class="edge">
<title>3&#45;&gt;2</title>
<path fill="none" stroke="grey" stroke-width="2" d="M179.99,-215.7C180.43,-207.98 180.96,-198.71 181.45,-190.11"/>
<polygon fill="grey" stroke="grey" stroke-width="2" points="184.95,-190.29 182.02,-180.1 177.96,-189.89 184.95,-190.29"/>
</g>
<!-- 4 -->
<g id="node5" class="node">
<title>4</title>
<path fill="none" stroke="#d85656" stroke-width="2" d="M168,-324C168,-324 102,-324 102,-324 96,-324 90,-318 90,-312 90,-312 90,-300 90,-300 90,-294 96,-288 102,-288 102,-288 168,-288 168,-288 174,-288 180,-294 180,-300 180,-300 180,-312 180,-312 180,-318 174,-324 168,-324"/>
<text text-anchor="middle" x="135" y="-303.5" font-family="sans" font-size="10.00">samtools_view</text>
</g>
<!-- 4&#45;&gt;1 -->
<g id="edge3" class="edge">
<title>4&#45;&gt;1</title>
<path fill="none" stroke="grey" stroke-width="2" d="M128.19,-287.62C124.5,-277.41 120.25,-264.16 118,-252 109.26,-204.77 103.5,-190.87 114,-144 116.01,-135.01 119.73,-125.75 123.7,-117.53"/>
<polygon fill="grey" stroke="grey" stroke-width="2" points="126.91,-118.94 128.37,-108.44 120.68,-115.73 126.91,-118.94"/>
</g>
<!-- 4&#45;&gt;3 -->
<g id="edge5" class="edge">
<title>4&#45;&gt;3</title>
<path fill="none" stroke="grey" stroke-width="2" d="M145.88,-287.7C150.99,-279.56 157.2,-269.69 162.84,-260.7"/>
<polygon fill="grey" stroke="grey" stroke-width="2" points="165.89,-262.43 168.25,-252.1 159.96,-258.71 165.89,-262.43"/>
</g>
<!-- 5 -->
<g id="node6" class="node">
<title>5</title>
<path fill="none" stroke="#afd856" stroke-width="2" d="M186,-396C186,-396 84,-396 84,-396 78,-396 72,-390 72,-384 72,-384 72,-372 72,-372 72,-366 78,-360 84,-360 84,-360 186,-360 186,-360 192,-360 198,-366 198,-372 198,-372 198,-384 198,-384 198,-390 192,-396 186,-396"/>
<text text-anchor="middle" x="135" y="-381" font-family="sans" font-size="10.00">minimap2_mapping</text>
<text text-anchor="middle" x="135" y="-370" font-family="sans" font-size="10.00">sample: SRR12717711</text>
</g>
<!-- 5&#45;&gt;4 -->
<g id="edge6" class="edge">
<title>5&#45;&gt;4</title>
<path fill="none" stroke="grey" stroke-width="2" d="M135,-359.7C135,-351.98 135,-342.71 135,-334.11"/>
<polygon fill="grey" stroke="grey" stroke-width="2" points="138.5,-334.1 135,-324.1 131.5,-334.1 138.5,-334.1"/>
</g>
<!-- 6 -->
<g id="node7" class="node">
<title>6</title>
<path fill="none" stroke="#56d8a9" stroke-width="2" d="M258,-468C258,-468 12,-468 12,-468 6,-468 0,-462 0,-456 0,-456 0,-444 0,-444 0,-438 6,-432 12,-432 12,-432 258,-432 258,-432 264,-432 270,-438 270,-444 270,-444 270,-456 270,-456 270,-462 264,-468 258,-468"/>
<text text-anchor="middle" x="135" y="-453" font-family="sans" font-size="10.00">minimap2_ref_indexing</text>
<text text-anchor="middle" x="135" y="-442" font-family="sans" font-size="10.00">ref_sample: GCF_000005845.2_ASM584v2_genomic</text>
</g>
<!-- 6&#45;&gt;5 -->
<g id="edge7" class="edge">
<title>6&#45;&gt;5</title>
<path fill="none" stroke="grey" stroke-width="2" d="M135,-431.7C135,-423.98 135,-414.71 135,-406.11"/>
<polygon fill="grey" stroke="grey" stroke-width="2" points="138.5,-406.1 135,-396.1 131.5,-406.1 138.5,-406.1"/>
</g>
</g>
</svg>
